<?xml version="1.0" encoding="UTF-8"?>
<svg id="Layer_1" data-name="Layer 1" xmlns="http://www.w3.org/2000/svg" viewBox="0 0 45.85 42.83">
  <defs>
    <style>
      .cls-1 {
        fill: #65bc46;
      }

      .cls-2 {
        fill: #00c1f3;
      }

      .cls-3 {
        fill: #ed1c24;
      }

      .cls-4 {
        fill: #231f20;
      }
    </style>
  </defs>
  <g>
    <rect class="cls-3" x=".25" y=".25" width="22.68" height="22.68" rx="11.34" ry="11.34"/>
    <path class="cls-4" d="m11.59,23.18C5.2,23.18,0,17.98,0,11.59S5.2,0,11.59,0s11.59,5.2,11.59,11.59-5.2,11.59-11.59,11.59ZM11.59.5C5.47.5.5,5.47.5,11.59s4.97,11.09,11.09,11.09,11.09-4.97,11.09-11.09S17.7.5,11.59.5Z"/>
  </g>
  <g>
    <rect class="cls-1" x="22.93" y=".25" width="22.68" height="22.68" rx="11.34" ry="11.34"/>
    <path class="cls-4" d="m34.27,23.18c-6.39,0-11.59-5.2-11.59-11.59S27.88,0,34.27,0s11.59,5.2,11.59,11.59-5.2,11.59-11.59,11.59Zm0-22.68c-6.11,0-11.09,4.97-11.09,11.09s4.97,11.09,11.09,11.09,11.09-4.97,11.09-11.09S40.38.5,34.27.5Z"/>
  </g>
  <g>
    <rect class="cls-2" x="11.53" y="19.9" width="22.68" height="22.68" rx="11.34" ry="11.34"/>
    <path class="cls-4" d="m22.87,42.83c-6.39,0-11.59-5.2-11.59-11.59s5.2-11.59,11.59-11.59,11.59,5.2,11.59,11.59-5.2,11.59-11.59,11.59Zm0-22.68c-6.11,0-11.09,4.97-11.09,11.09s4.97,11.09,11.09,11.09,11.09-4.97,11.09-11.09-4.97-11.09-11.09-11.09Z"/>
  </g>
</svg>